<svg xmlns="http://www.w3.org/2000/svg" width="132" height="41" viewBox="0 0 132 41">
    <g fill="none">
        <g fill="#000">
            <path d="M11.296 13.088h-7.07l-1.11 2.642H.157L6.27 1.096h2.961l6.112 14.634h-2.938l-1.109-2.642zm-.958-2.301L7.76 4.631l-2.577 6.156h5.154zM26.569 8.722v7.013h-2.514V9.242c0-1.494-.959-2.556-2.323-2.556-1.363 0-2.49.914-2.662 2.078v6.966h-2.597V4.717h2.597v1.47c.782-1.102 2.057-1.748 3.408-1.725 2.408 0 4.09 1.772 4.09 4.26zM27.953 18.987l.553-1.873c.432.242.914.38 1.408.403.57.049 1.116-.233 1.405-.725l.468-.979-4.675-11.096h2.758l3.216 8.22 3.018-8.22h2.683l-4.675 11.78c-.831 2.077-2.11 3.043-3.77 3.067-.83-.002-1.648-.2-2.389-.577zM46.66 15.112c-.657.55-1.482.857-2.338.872-1.834 0-3.117-1.322-3.117-3.174V6.868h-1.597V4.717h1.597V1.694h2.535v3.023h2.494v2.15H43.74v5.624c0 .745.47 1.278 1.086 1.278.401.01.791-.135 1.088-.405l.746 1.748zM47.766 1.558c.005-.815.667-1.473 1.482-1.472.816 0 1.477.66 1.48 1.476.002.815-.656 1.479-1.47 1.485-.82-.009-1.482-.67-1.492-1.489zm.17 3.151h2.596v11.013h-2.597V4.71zM69.587 8.722v7.013h-2.535V9.148c0-1.45-.873-2.47-2.13-2.47-1.428 0-2.408.958-2.408 2.299v6.753H59.98V9.148c0-1.45-.873-2.47-2.15-2.47-1.406 0-2.406.958-2.406 2.299v6.753h-2.597V4.717h2.597v1.49c.608-1.116 1.795-1.792 3.065-1.745 1.473-.036 2.837.77 3.515 2.078.52-1.278 1.916-2.078 3.558-2.078 2.299 0 4.026 1.772 4.026 4.26zM79.797 12.577l1.64 1.704c-.96 1.02-2.876 1.703-4.473 1.703-1.54.023-3.022-.582-4.107-1.675-1.085-1.093-1.678-2.58-1.644-4.12 0-3.298 2.47-5.727 5.603-5.727 3.407 0 5.387 2.577 5.387 6.644H73.89c.32 1.512 1.47 2.577 3.047 2.577 1.028 0 2.241-.467 2.86-1.106zM73.92 9.125h5.793c-.299-1.385-1.237-2.364-2.79-2.364-1.432-.017-2.682.967-3.003 2.364z" transform="translate(.194 .5) translate(47.813 13.323)"/>
        </g>
        <g fill="#6285FF">
            <path d="M32.923 2.846H3.659C1.64 2.846 0 4.484 0 6.505v29.264c0 2.02 1.638 3.659 3.66 3.659h29.263c2.021 0 3.66-1.638 3.66-3.66V6.506c0-2.021-1.639-3.66-3.66-3.66zM3.659 5.017h29.264c.822 0 1.488.666 1.488 1.488v29.264c0 .821-.666 1.487-1.488 1.487H3.659c-.821 0-1.487-.666-1.487-1.487V6.505c0-.822.666-1.488 1.487-1.488z" transform="translate(.194 .5)"/>
            <g>
                <path d="M.883 0c.472 0 .857.37.882.835l.002.048v6.671c0 .488-.396.883-.884.883-.471 0-.857-.37-.882-.835L0 7.554V.884C0 .395.396 0 .883 0zM20.316 0c.471 0 .857.37.882.835l.001.048v6.671c0 .488-.395.883-.883.883-.472 0-.857-.37-.882-.835l-.002-.048V.884c0-.488.396-.884.884-.884z" transform="translate(.194 .5) translate(7.666)"/>
            </g>
            <path d="M18.291 11.068c-5.56 0-10.069 4.508-10.069 10.069 0 5.56 4.508 10.069 10.07 10.069 5.56 0 10.068-4.508 10.068-10.07 0-5.56-4.508-10.068-10.069-10.068zm0 1.974c4.471 0 8.095 3.624 8.095 8.095 0 4.47-3.624 8.095-8.095 8.095-4.47 0-8.095-3.624-8.095-8.095s3.624-8.095 8.095-8.095z" transform="translate(.194 .5)"/>
            <path d="M23.52 19.215c.43-.41.445-1.091.034-1.52-.388-.407-1.02-.441-1.45-.095l-.07.061-4.399 4.21-1.786-1.786c-.398-.398-1.03-.419-1.452-.063l-.069.063c-.397.398-.418 1.03-.062 1.452l.062.068 2.53 2.53c.392.391 1.012.419 1.435.077l.068-.06 5.16-4.937z" transform="translate(.194 .5)"/>
        </g>
    </g>
</svg>
