<svg xmlns="http://www.w3.org/2000/svg" width="19" height="21" viewBox="0 0 19 21">
    <path fill="#FFF" d="M17.883 16.318c-.314.699-.686 1.342-1.117 1.933-.587.806-1.068 1.365-1.439 1.674-.574.509-1.19.77-1.849.784-.473 0-1.044-.13-1.708-.392-.667-.262-1.28-.392-1.84-.392-.586 0-1.216.13-1.89.392-.675.263-1.219.4-1.634.413-.632.026-1.262-.242-1.891-.805-.402-.337-.904-.914-1.505-1.733-.646-.874-1.176-1.888-1.592-3.043C.973 13.901.75 12.692.75 11.522c0-1.34.3-2.496.903-3.465.474-.778 1.104-1.392 1.893-1.842.788-.451 1.64-.68 2.558-.695.502 0 1.16.15 1.979.443.815.295 1.34.444 1.569.444.172 0 .754-.175 1.74-.523.933-.323 1.72-.457 2.366-.404 1.748.135 3.06.799 3.934 1.994-1.563.912-2.336 2.189-2.321 3.827.014 1.276.495 2.338 1.44 3.181.428.392.907.694 1.439.909-.115.322-.237.63-.367.927zM13.874 1.132c0 1-.38 1.934-1.136 2.799-.913 1.027-2.017 1.621-3.215 1.527-.015-.12-.024-.246-.024-.379 0-.96.434-1.987 1.205-2.828.385-.425.875-.779 1.469-1.061.592-.278 1.152-.432 1.68-.458.015.134.021.267.021.4z"/>
</svg>
