<svg xmlns="http://www.w3.org/2000/svg" width="40" height="40" viewBox="0 0 40 40">
  <path fill="#6285FF" fill-rule="evenodd" d="M20.0055067,0 C19.906224,0 19.8096992,0.000689464975 19.7104165,0.0027578599 C8.68383579,0.162024269 -0.15714745,9.26296194 0.0021184888,20.2902648 C0.160005501,31.1576117 9.12853938,40 19.9944753,40 C20.0937579,40 20.1916617,39.9993105 20.2895654,39.9979316 C31.3161461,39.8379757 40.1578188,30.7370381 39.9978634,19.7104247 C39.8406659,8.84238831 30.872132,0 20.0055067,0 M20.0055067,2.20628792 C29.7117659,2.20628792 37.6509316,10.0048263 37.791582,19.7428296 C37.9343009,29.5683949 30.0840759,37.6489244 20.2578501,37.7916437 C20.1695988,37.7930226 20.0827265,37.7937121 19.9944753,37.7937121 C10.288216,37.7937121 2.34973979,29.9958632 2.20839989,20.2578599 C2.06568106,10.4316051 9.91659552,2.3503861 19.7421318,2.20835632 C19.8303831,2.20697739 19.9172554,2.20628792 20.0055067,2.20628792 Z M17.7517185,14.0480397 C17.4284596,14.0480397 17.1034015,14.0816251 16.7855403,14.1475965 C15.61785,14.3952891 14.5071349,14.7773235 13.473786,15.2841037 C12.4602284,15.7734916 11.4952497,16.3984206 10.6160335,17.1349013 C9.34998614,18.1874449 8.72865737,19.8385291 8.99913929,21.439235 C9.20484949,22.6381152 9.57308874,23.7818193 10.0942612,24.8451583 C10.5998405,25.8839079 11.2505565,26.8506887 12.026018,27.7125151 C12.8920399,28.6697001 14.1358969,29.2160632 15.441527,29.2160632 C15.771383,29.2160632 16.1024385,29.1812783 16.4256973,29.1123082 C17.5334138,28.8808085 18.6309347,28.5041718 19.6810763,27.9925936 C20.7522087,27.4642227 21.7417767,26.8147043 22.6329876,26.0584323 C23.8996347,24.9669055 24.4999726,23.3116232 24.2108988,21.7307087 C24.0063881,20.5930019 23.6471449,19.4918794 23.1439646,18.4651245 C22.6269903,17.4035848 21.9576824,16.4158131 21.157032,15.5353948 C20.2928092,14.5890051 19.0531504,14.0480397 17.7517185,14.0480397 Z M26.654652,11.5108397 C25.8797903,11.5108397 25.1409128,11.8802796 24.6767155,12.4986115 C24.3354645,12.9538141 24.0218014,13.4426022 23.7459218,13.9511817 C23.2703294,14.8112088 23.3141103,15.8697498 23.8670689,16.6985905 C24.0397935,16.9594773 24.2029223,17.2467528 24.3636522,17.5724116 C24.5069896,17.8674837 24.6359333,18.1787487 24.742087,18.489414 C25.0497526,19.4136133 25.8510029,20.0967171 26.8273766,20.2598464 C27.3827342,20.3558048 27.9614816,20.4109809 28.53783,20.4229757 L28.53783,20.4229757 L28.5864088,20.4235754 L28.7718365,20.416727 C29.4473579,20.3666834 30.0705109,20.0443398 30.503172,19.5143696 C30.9763655,18.9362203 31.1622843,18.1841464 31.0135492,17.4506644 C30.8114375,16.5156698 30.5025723,15.6232567 30.0905522,14.7752244 C29.6815307,13.9271921 29.1633569,13.1253397 28.5534232,12.3978552 C28.0850276,11.8352991 27.3917303,11.5108397 26.654652,11.5108397 Z"/>
</svg>
